<svg width="25" height="24" viewBox="0 0 25 24" fill="none" xmlns="http://www.w3.org/2000/svg">
<path fill-rule="evenodd" clip-rule="evenodd" d="M2.74997 12C2.74997 11.5858 3.08576 11.25 3.49997 11.25H21.5C21.9142 11.25 22.25 11.5858 22.25 12C22.25 12.4142 21.9142 12.75 21.5 12.75H3.49997C3.08576 12.75 2.74997 12.4142 2.74997 12Z" fill="#000"/>
<path fill-rule="evenodd" clip-rule="evenodd" d="M14.9697 5.46967C15.2626 5.17678 15.7374 5.17678 16.0303 5.46967L22.0303 11.4697C22.3232 11.7626 22.3232 12.2374 22.0303 12.5303L16.0303 18.5303C15.7374 18.8232 15.2626 18.8232 14.9697 18.5303C14.6768 18.2374 14.6768 17.7626 14.9697 17.4697L20.4393 12L14.9697 6.53033C14.6768 6.23744 14.6768 5.76256 14.9697 5.46967Z" fill="#000"/>
</svg>
