<svg width="69" height="69" viewBox="0 0 69 69" fill="none" xmlns="http://www.w3.org/2000/svg">
<path d="M6.4425 47.6164H9.64409H58.9486H61.9368C63.2174 47.6164 64.0712 46.7626 64.0712 45.482C64.0712 44.2014 63.2174 43.3476 61.9368 43.3476H59.8024C59.3755 31.1815 51.0514 21.1499 39.9525 18.3752C40.3794 17.5214 40.5928 16.6676 40.5928 15.6005C40.5928 11.972 37.8181 9.19727 34.1896 9.19727C30.5612 9.19727 27.7865 11.972 27.7865 15.6005C27.7865 16.6676 27.9999 17.5214 28.4268 18.3752C17.3279 21.1499 9.00378 31.1815 8.5769 43.3476H6.4425C5.16186 43.3476 4.30811 44.2014 4.30811 45.482C4.30811 46.7626 5.16186 47.6164 6.4425 47.6164Z" fill="#000"/>
<path d="M11.7786 51.8848L13.4861 55.0864C13.6995 55.7267 14.5533 56.1536 15.407 56.1536H53.1858C54.0396 56.1536 54.6799 55.7267 55.1068 55.0864L56.8143 51.8848H11.7786Z" fill="#000"/>
<path d="M27.2043 32.4814H34.1896M34.1896 32.4814H41.1749M34.1896 32.4814V39.4667M34.1896 32.4814V25.4961" stroke="#fff" stroke-width="4" stroke-linecap="round" stroke-linejoin="round"/>
</svg>
