<svg width="38" height="38" viewBox="0 0 38 38" fill="none" xmlns="http://www.w3.org/2000/svg">
<path d="M19 0.625C23.8734 0.625 28.5471 2.56093 31.9931 6.00691C35.4391 9.45289 37.375 14.1266 37.375 19C37.375 23.8734 35.4391 28.5471 31.9931 31.9931C28.5471 35.4391 23.8734 37.375 19 37.375C14.1266 37.375 9.45289 35.4391 6.00691 31.9931C2.56093 28.5471 0.625 23.8734 0.625 19C0.625 14.1266 2.56093 9.45289 6.00691 6.00691C9.45289 2.56093 14.1266 0.625 19 0.625ZM9.8125 19C9.8125 19.4177 9.97844 19.8183 10.2738 20.1137C10.5692 20.4091 10.9698 20.575 11.3875 20.575H26.6125C27.0302 20.575 27.4308 20.4091 27.7262 20.1137C28.0216 19.8183 28.1875 19.4177 28.1875 19C28.1875 18.5823 28.0216 18.1817 27.7262 17.8863C27.4308 17.5909 27.0302 17.425 26.6125 17.425H11.3875C11.1807 17.425 10.9759 17.4657 10.7848 17.5449C10.5937 17.624 10.4201 17.7401 10.2738 17.8863C10.1276 18.0326 10.0115 18.2062 9.93239 18.3973C9.85324 18.5884 9.8125 18.7932 9.8125 19Z" fill="#000"/>
</svg>
