<svg width="48" height="49" viewBox="0 0 48 49" fill="none" xmlns="http://www.w3.org/2000/svg">
<path d="M44 14.98L44 11.18C44 6.8 41.7 4.5 37.34 4.5L33.54 4.5C29.18 4.5 26.88 6.8 26.88 11.16L26.88 14.96C26.88 19.32 29.18 21.62 33.54 21.62L37.34 21.62C41.7 21.64 44 19.34 44 14.98Z" fill="#000"/>
<path d="M44 37.8389L44 34.0389C44 29.6789 41.7 27.3789 37.34 27.3789L33.54 27.3789C29.18 27.3789 26.88 29.6789 26.88 34.0389L26.88 37.8389C26.88 42.1989 29.18 44.4989 33.54 44.4989L37.34 44.4989C41.7 44.4989 44 42.1989 44 37.8389Z" fill="#000"/>
<path d="M21.1406 37.8389L21.1406 34.0389C21.1406 29.6789 18.8406 27.3789 14.4806 27.3789L10.6806 27.3789C6.32062 27.3789 4.02062 29.6789 4.02062 34.0389L4.02062 37.8389C4.02062 42.1989 6.32062 44.4989 10.6806 44.4989L14.4806 44.4989C18.8406 44.4989 21.1406 42.1989 21.1406 37.8389Z" fill="#000"/>
<path d="M21.1406 14.98L21.1406 11.18C21.1406 6.8 18.8406 4.5 14.4806 4.5L10.6806 4.5C6.30062 4.5 4.00062 6.8 4.00062 11.16L4.00062 14.96C4.00062 19.32 6.30062 21.62 10.6606 21.62L14.4606 21.62C18.8406 21.64 21.1406 19.34 21.1406 14.98Z" fill="#000"/>
</svg>
