<svg width="37" height="38" viewBox="0 0 37 38" fill="none" xmlns="http://www.w3.org/2000/svg">
<path fill-rule="evenodd" clip-rule="evenodd" d="M11.336 2.00178C11.8973 0.81834 13.1031 0 14.5 0L22.5 0C23.8968 0 25.1026 0.81834 25.664 2.00178C27.031 2.01172 28.0966 2.07448 29.0476 2.44618C30.184 2.89032 31.1724 3.64532 31.8998 4.62484C32.6336 5.613 32.9782 6.87958 33.4524 8.62288L34.9362 14.0654L35.497 15.748C35.513 15.7678 35.5288 15.7876 35.5444 15.8078C37.3462 18.1152 36.4882 21.547 34.7724 28.4106C33.681 32.776 33.1352 34.9586 31.5078 36.2294C29.8802 37.5002 27.6304 37.5002 23.1306 37.5002L13.8692 37.5002C9.36952 37.5002 7.11966 37.5002 5.4921 36.2294C3.86454 34.9586 3.31886 32.776 2.22752 28.4106C0.51162 21.547 -0.34632 18.1152 1.45534 15.8078C1.4711 15.7876 1.487 15.7676 1.50304 15.7478L2.0638 14.0654L3.54768 8.6229C4.02184 6.8796 4.36632 5.613 5.10018 4.62484C5.82762 3.64532 6.81604 2.89032 7.95242 2.4462C8.9035 2.07448 9.96894 2.01172 11.336 2.00178ZM11.339 5.00462C10.0153 5.018 9.48408 5.06854 9.04448 5.24036C8.43258 5.47952 7.90036 5.88606 7.50866 6.41348C7.15644 6.88776 6.94976 7.5504 6.36796 9.68412L5.22884 13.8618C7.26902 13.5002 10.0551 13.5002 13.8692 13.5002L23.1306 13.5002C26.9448 13.5002 29.731 13.5002 31.7712 13.8618L30.632 9.68412C30.0502 7.5504 29.8436 6.88776 29.4914 6.41348C29.0996 5.88606 28.5674 5.47952 27.9556 5.24036C27.516 5.06854 26.9848 5.018 25.661 5.00462C25.0984 6.1846 23.8944 7 22.5 7L14.5 7C13.1056 7 11.9017 6.1846 11.339 5.00462Z" fill="#000"/>
</svg>
