<svg width="20" height="20" viewBox="0 0 20 20" fill="none" xmlns="http://www.w3.org/2000/svg">
<path d="M2.5 2.5L17.5 17.5" stroke="#fff" stroke-width="1.5" stroke-linecap="round" stroke-linejoin="round"/>
<path d="M8.74992 8.89746C8.4906 9.19127 8.33325 9.5772 8.33325 9.99989C8.33325 10.9204 9.07944 11.6666 9.99992 11.6666C10.4226 11.6666 10.8085 11.5092 11.1023 11.2499" stroke="#fff" stroke-width="1.5" stroke-linecap="round" stroke-linejoin="round"/>
<path d="M6.13488 6.30078C4.73335 7.28294 3.56578 8.68224 2.5 9.99989C4.0738 12.4924 6.90141 14.9999 10 14.9999C11.2916 14.9999 12.5361 14.5642 13.6624 13.8755" stroke="#fff" stroke-width="1.5" stroke-linecap="round" stroke-linejoin="round"/>
<path d="M10 5C13.3403 5 15.5846 7.63183 17.5 10C17.2346 10.4203 16.9336 10.841 16.6017 11.25" stroke="#fff" stroke-width="1.5" stroke-linecap="round" stroke-linejoin="round"/>
</svg>