<svg width="40" height="40" viewBox="0 0 40 40" fill="none" xmlns="http://www.w3.org/2000/svg">
<rect width="40" height="40" rx="20" fill="#000" fill-opacity="0.2"/>
<path fill-rule="evenodd" clip-rule="evenodd" d="M13.6655 13.6655C15.286 12.045 17.5264 11.0416 20 11.0416C22.4736 11.0416 24.714 12.045 26.3345 13.6655L25.8925 14.1074L26.3345 13.6655C27.9549 15.2859 28.9583 17.5264 28.9583 20C28.9583 22.4735 27.9549 24.714 26.3345 26.3344C24.714 27.9549 22.4736 28.9583 20 28.9583C17.5264 28.9583 15.286 27.9549 13.6655 26.3344L14.1074 25.8925L13.6655 26.3344C12.0451 24.714 11.0417 22.4735 11.0417 20C11.0417 17.5264 12.0451 15.2859 13.6655 13.6655L13.6655 13.6655ZM20 12.2916C17.8713 12.2916 15.945 13.1537 14.5494 14.5493C13.1538 15.945 12.2917 17.8712 12.2917 20C12.2917 22.1287 13.1538 24.0549 14.5494 25.4506C15.945 26.8462 17.8713 27.7083 20 27.7083C22.1288 27.7083 24.055 26.8462 25.4506 25.4506C26.8462 24.0549 27.7083 22.1287 27.7083 20C27.7083 17.8712 26.8462 15.945 25.4506 14.5493C24.055 13.1537 22.1288 12.2916 20 12.2916Z" fill="#000"/>
<path d="M20.7917 24.375C20.7917 24.8123 20.4372 25.1667 20 25.1667C19.5628 25.1667 19.2083 24.8123 19.2083 24.375C19.2083 23.9378 19.5628 23.5834 20 23.5834C20.4372 23.5834 20.7917 23.9378 20.7917 24.375Z" fill="#000" stroke="#fff" stroke-width="0.5"/>
<path fill-rule="evenodd" clip-rule="evenodd" d="M20 14.375C20.3452 14.375 20.625 14.6548 20.625 15V21.6667C20.625 22.0118 20.3452 22.2917 20 22.2917C19.6548 22.2917 19.375 22.0118 19.375 21.6667V15C19.375 14.6548 19.6548 14.375 20 14.375Z" fill="#000"/>
</svg>
