<svg width="20" height="20" viewBox="0 0 20 20" fill="none" xmlns="http://www.w3.org/2000/svg">
<path fill-rule="evenodd" clip-rule="evenodd" d="M1.93226 3.48869C2.03428 3.26702 2.25599 3.125 2.50001 3.125H17.5C17.744 3.125 17.9657 3.26702 18.0678 3.48869C18.1698 3.71036 18.1335 3.97114 17.9748 4.1565L12.125 10.9884V17.5C12.125 17.7161 12.0134 17.9168 11.8299 18.0308C11.6464 18.1449 11.417 18.1561 11.2233 18.0604L8.22327 16.5789C8.01001 16.4736 7.87501 16.2564 7.87501 16.0185V10.9884L2.02526 4.1565C1.86655 3.97114 1.83023 3.71036 1.93226 3.48869ZM3.85796 4.375L8.97476 10.3509C9.07172 10.4642 9.12501 10.6083 9.12501 10.7574V15.6301L10.875 16.4943V10.7574C10.875 10.6083 10.9283 10.4642 11.0253 10.3509L16.1421 4.375H3.85796Z" fill="#000"/>
</svg>
