<svg width="97" height="108" viewBox="0 0 97 108" fill="none" xmlns="http://www.w3.org/2000/svg">
<path d="M64.7791 71.72C58.6065 67.414 51.0995 64.8889 43.0024 64.8889C23.4256 64.8889 7.29652 79.651 5.13856 98.6515C4.98585 99.9963 4.90947 100.669 5.17792 101.318C5.39759 101.849 5.87308 102.382 6.37613 102.66C6.99088 103 7.74349 103 9.24859 103H37.2574M59.3349 93.6666L69.1344 103L92 81.2222M64.7791 26.7778C64.7791 38.8053 55.0297 48.5556 43.0024 48.5556C30.9755 48.5556 21.2258 38.8053 21.2258 26.7778C21.2258 14.7502 30.9755 5 43.0024 5C55.0297 5 64.7791 14.7502 64.7791 26.7778Z" stroke="#fff" stroke-width="10" stroke-linecap="round" stroke-linejoin="round"/>
</svg>
