<svg width="40" height="40" viewBox="0 0 40 40" fill="none" xmlns="http://www.w3.org/2000/svg">
<rect width="40" height="40" rx="20" fill="#000" fill-opacity="0.1"/>
<path fill-rule="evenodd" clip-rule="evenodd" d="M12.9167 13.125C12.5715 13.125 12.2917 13.4048 12.2917 13.75V26.25C12.2917 26.5952 12.5715 26.875 12.9167 26.875H27.0833C27.4285 26.875 27.7083 26.5952 27.7083 26.25V13.75C27.7083 13.4048 27.4285 13.125 27.0833 13.125H12.9167ZM11.0417 13.75C11.0417 12.7145 11.8811 11.875 12.9167 11.875H27.0833C28.1189 11.875 28.9583 12.7145 28.9583 13.75V26.25C28.9583 27.2855 28.1189 28.125 27.0833 28.125H12.9167C11.8811 28.125 11.0417 27.2855 11.0417 26.25V13.75Z" fill="#000"/>
<path fill-rule="evenodd" clip-rule="evenodd" d="M11.0417 15.8334C11.0417 15.4882 11.3215 15.2084 11.6667 15.2084H28.3333C28.6785 15.2084 28.9583 15.4882 28.9583 15.8334C28.9583 16.1786 28.6785 16.4584 28.3333 16.4584H11.6667C11.3215 16.4584 11.0417 16.1786 11.0417 15.8334Z" fill="#000"/>
<path fill-rule="evenodd" clip-rule="evenodd" d="M17.7083 20C17.7083 19.6548 17.9882 19.375 18.3333 19.375H25C25.3452 19.375 25.625 19.6548 25.625 20C25.625 20.3452 25.3452 20.625 25 20.625H18.3333C17.9882 20.625 17.7083 20.3452 17.7083 20Z" fill="#000"/>
<path fill-rule="evenodd" clip-rule="evenodd" d="M17.7083 23.3334C17.7083 22.9882 17.9882 22.7084 18.3333 22.7084H25C25.3452 22.7084 25.625 22.9882 25.625 23.3334C25.625 23.6786 25.3452 23.9584 25 23.9584H18.3333C17.9882 23.9584 17.7083 23.6786 17.7083 23.3334Z" fill="#000"/>
<path fill-rule="evenodd" clip-rule="evenodd" d="M14.375 20C14.375 19.6548 14.6548 19.375 15 19.375H15.8333C16.1785 19.375 16.4583 19.6548 16.4583 20C16.4583 20.3452 16.1785 20.625 15.8333 20.625H15C14.6548 20.625 14.375 20.3452 14.375 20Z" fill="#000"/>
<path fill-rule="evenodd" clip-rule="evenodd" d="M14.375 23.3334C14.375 22.9882 14.6548 22.7084 15 22.7084H15.8333C16.1785 22.7084 16.4583 22.9882 16.4583 23.3334C16.4583 23.6786 16.1785 23.9584 15.8333 23.9584H15C14.6548 23.9584 14.375 23.6786 14.375 23.3334Z" fill="#000"/>
</svg>
