<svg width="16" height="17" viewBox="0 0 16 17" fill="none" xmlns="http://www.w3.org/2000/svg">
<path fill-rule="evenodd" clip-rule="evenodd" d="M1.5 2.5C1.5 2.22386 1.72386 2 2 2H7.99723C8.27338 2 8.49723 2.22386 8.49723 2.5C8.49723 2.77614 8.27338 3 7.99723 3H2.5V14H8C8.27614 14 8.5 14.2239 8.5 14.5C8.5 14.7761 8.27614 15 8 15H2C1.72386 15 1.5 14.7761 1.5 14.5V2.5Z" fill="#000"/>
<path fill-rule="evenodd" clip-rule="evenodd" d="M10.6464 5.14645C10.8417 4.95118 11.1583 4.95118 11.3536 5.14645L14.3536 8.14645C14.5488 8.34171 14.5488 8.65829 14.3536 8.85355L11.3536 11.8536C11.1583 12.0488 10.8417 12.0488 10.6464 11.8536C10.4512 11.6583 10.4512 11.3417 10.6464 11.1464L13.2929 8.5L10.6464 5.85355C10.4512 5.65829 10.4512 5.34171 10.6464 5.14645Z" fill="#000"/>
<path fill-rule="evenodd" clip-rule="evenodd" d="M4.83331 8.49719C4.83331 8.22105 5.05717 7.99719 5.33331 7.99719H14C14.2761 7.99719 14.5 8.22105 14.5 8.49719C14.5 8.77334 14.2761 8.99719 14 8.99719H5.33331C5.05717 8.99719 4.83331 8.77334 4.83331 8.49719Z" fill="#000"/>
</svg>
