<svg width="97" height="108" viewBox="0 0 97 108" fill="none" xmlns="http://www.w3.org/2000/svg">
<path d="M48.5082 65.2749C46.7319 65.0206 44.916 64.8889 43.0696 64.8889C22.0444 64.8889 5 81.9518 5 103H59.3852M81.123 86.6667C86.5615 81.2222 92 79.0695 92 73.0556C92 67.0416 87.1304 62.1667 81.123 62.1667C76.0548 62.1667 71.7959 65.637 70.5885 70.3333M81.123 103H81.1773M64.8237 26.7778C64.8237 38.8053 55.0839 48.5556 43.0696 48.5556C31.0552 48.5556 21.3156 38.8053 21.3156 26.7778C21.3156 14.7502 31.0552 5 43.0696 5C55.0839 5 64.8237 14.7502 64.8237 26.7778Z" stroke="#fff" stroke-width="10" stroke-linecap="round" stroke-linejoin="round"/>
</svg>
