<svg width="365" height="59" viewBox="0 0 365 59" fill="none" xmlns="http://www.w3.org/2000/svg">
<path d="M35.9148 58.872L29.1308 50.744C27.2534 51.2133 25.3334 51.448 23.3708 51.448C19.1894 51.448 15.3494 50.4667 11.8508 48.504C8.35208 46.5413 5.57875 43.832 3.53075 40.376C1.48275 36.8773 0.45875 32.9307 0.45875 28.536C0.45875 24.184 1.48275 20.28 3.53075 16.824C5.57875 13.3253 8.35208 10.5947 11.8508 8.632C15.3494 6.66933 19.1894 5.688 23.3708 5.688C27.5948 5.688 31.4348 6.66933 34.8908 8.632C38.3894 10.5947 41.1414 13.3253 43.1468 16.824C45.1948 20.28 46.2188 24.184 46.2188 28.536C46.2188 32.504 45.3654 36.1307 43.6588 39.416C41.9948 42.6587 39.7121 45.304 36.8108 47.352L47.0508 58.872H35.9148ZM9.67475 28.536C9.67475 31.5227 10.2508 34.1467 11.4028 36.408C12.5548 38.6693 14.1548 40.4187 16.2028 41.656C18.2934 42.8507 20.6828 43.448 23.3708 43.448C26.0588 43.448 28.4268 42.8507 30.4748 41.656C32.5228 40.4187 34.1228 38.6693 35.2748 36.408C36.4268 34.1467 37.0028 31.5227 37.0028 28.536C37.0028 25.5493 36.4268 22.9467 35.2748 20.728C34.1228 18.4667 32.5228 16.7387 30.4748 15.544C28.4268 14.3493 26.0588 13.752 23.3708 13.752C20.6828 13.752 18.2934 14.3493 16.2028 15.544C14.1548 16.7387 12.5548 18.4667 11.4028 20.728C10.2508 22.9467 9.67475 25.5493 9.67475 28.536ZM86.4818 15.544V51H77.4578V46.52C76.3058 48.056 74.7911 49.272 72.9138 50.168C71.0791 51.0213 69.0738 51.448 66.8978 51.448C64.1244 51.448 61.6711 50.872 59.5378 49.72C57.4044 48.5253 55.7191 46.7973 54.4818 44.536C53.2871 42.232 52.6898 39.5013 52.6898 36.344V15.544H61.6498V35.064C61.6498 37.88 62.3538 40.056 63.7618 41.592C65.1698 43.0853 67.0898 43.832 69.5218 43.832C71.9964 43.832 73.9378 43.0853 75.3458 41.592C76.7538 40.056 77.4578 37.88 77.4578 35.064V15.544H86.4818ZM99.8663 11.32C98.2876 11.32 96.9649 10.8293 95.8983 9.848C94.8743 8.824 94.3623 7.56533 94.3623 6.072C94.3623 4.57866 94.8743 3.34133 95.8983 2.36C96.9649 1.336 98.2876 0.823997 99.8663 0.823997C101.445 0.823997 102.746 1.336 103.77 2.36C104.837 3.34133 105.37 4.57866 105.37 6.072C105.37 7.56533 104.837 8.824 103.77 9.848C102.746 10.8293 101.445 11.32 99.8663 11.32ZM104.282 15.544V51H95.3223V15.544H104.282ZM110.831 33.272C110.831 29.6027 111.577 26.4027 113.071 23.672C114.564 20.8987 116.633 18.7653 119.279 17.272C121.924 15.736 124.953 14.968 128.367 14.968C132.761 14.968 136.388 16.0773 139.247 18.296C142.148 20.472 144.089 23.544 145.071 27.512H135.407C134.895 25.976 134.02 24.7813 132.783 23.928C131.588 23.032 130.095 22.584 128.303 22.584C125.743 22.584 123.716 23.5227 122.223 25.4C120.729 27.2347 119.983 29.8587 119.983 33.272C119.983 36.6427 120.729 39.2667 122.223 41.144C123.716 42.9787 125.743 43.896 128.303 43.896C131.929 43.896 134.297 42.2747 135.407 39.032H145.071C144.089 42.872 142.148 45.9227 139.247 48.184C136.345 50.4453 132.719 51.576 128.367 51.576C124.953 51.576 121.924 50.8293 119.279 49.336C116.633 47.8 114.564 45.6667 113.071 42.936C111.577 40.1627 110.831 36.9413 110.831 33.272ZM172.627 51L160.595 35.896V51H151.635V3.64H160.595V30.584L172.499 15.544H184.147L168.531 33.336L184.275 51H172.627Z" fill="#2A3037"/>
<path d="M204.434 51.448C201.319 51.448 198.503 50.9147 195.986 49.848C193.511 48.7813 191.548 47.2453 190.098 45.24C188.647 43.2347 187.9 40.8667 187.858 38.136H197.458C197.586 39.9707 198.226 41.4213 199.378 42.488C200.572 43.5547 202.194 44.088 204.242 44.088C206.332 44.088 207.975 43.5973 209.17 42.616C210.364 41.592 210.962 40.2693 210.962 38.648C210.962 37.3253 210.556 36.2373 209.746 35.384C208.935 34.5307 207.911 33.8693 206.674 33.4C205.479 32.888 203.815 32.3333 201.682 31.736C198.78 30.8827 196.412 30.0507 194.578 29.24C192.786 28.3867 191.228 27.128 189.906 25.464C188.626 23.7573 187.986 21.496 187.986 18.68C187.986 16.0347 188.647 13.7307 189.97 11.768C191.292 9.80533 193.148 8.312 195.538 7.288C197.927 6.22133 200.658 5.688 203.73 5.688C208.338 5.688 212.071 6.81867 214.93 9.08C217.831 11.2987 219.431 14.4133 219.73 18.424H209.874C209.788 16.888 209.127 15.6293 207.89 14.648C206.695 13.624 205.095 13.112 203.09 13.112C201.34 13.112 199.932 13.56 198.866 14.456C197.842 15.352 197.33 16.6533 197.33 18.36C197.33 19.5547 197.714 20.5573 198.482 21.368C199.292 22.136 200.274 22.776 201.426 23.288C202.62 23.7573 204.284 24.312 206.418 24.952C209.319 25.8053 211.687 26.6587 213.522 27.512C215.356 28.3653 216.935 29.6453 218.258 31.352C219.58 33.0587 220.242 35.2987 220.242 38.072C220.242 40.4613 219.623 42.68 218.386 44.728C217.148 46.776 215.335 48.4187 212.946 49.656C210.556 50.8507 207.719 51.448 204.434 51.448ZM260.97 32.504C260.97 33.784 260.884 34.936 260.714 35.96H234.794C235.007 38.52 235.903 40.5253 237.482 41.976C239.06 43.4267 241.002 44.152 243.306 44.152C246.634 44.152 249.002 42.7227 250.41 39.864H260.074C259.05 43.2773 257.087 46.0933 254.186 48.312C251.284 50.488 247.722 51.576 243.498 51.576C240.084 51.576 237.012 50.8293 234.282 49.336C231.594 47.8 229.482 45.6453 227.946 42.872C226.452 40.0987 225.706 36.8987 225.706 33.272C225.706 29.6027 226.452 26.3813 227.946 23.608C229.439 20.8347 231.53 18.7013 234.218 17.208C236.906 15.7147 239.999 14.968 243.498 14.968C246.868 14.968 249.876 15.6933 252.522 17.144C255.21 18.5947 257.279 20.664 258.73 23.352C260.223 25.9973 260.97 29.048 260.97 32.504ZM251.69 29.944C251.647 27.64 250.815 25.8053 249.194 24.44C247.572 23.032 245.588 22.328 243.242 22.328C241.023 22.328 239.146 23.0107 237.61 24.376C236.116 25.6987 235.199 27.5547 234.858 29.944H251.69ZM276.47 21.048C277.622 19.1707 279.115 17.6987 280.95 16.632C282.827 15.5653 284.96 15.032 287.35 15.032V24.44H284.982C282.166 24.44 280.032 25.1013 278.582 26.424C277.174 27.7467 276.47 30.0507 276.47 33.336V51H267.51V15.544H276.47V21.048ZM308.169 42.744L317.129 15.544H326.665L313.545 51H302.665L289.609 15.544H299.209L308.169 42.744ZM364.657 32.504C364.657 33.784 364.572 34.936 364.401 35.96H338.481C338.695 38.52 339.591 40.5253 341.169 41.976C342.748 43.4267 344.689 44.152 346.993 44.152C350.321 44.152 352.689 42.7227 354.097 39.864H363.761C362.737 43.2773 360.775 46.0933 357.873 48.312C354.972 50.488 351.409 51.576 347.185 51.576C343.772 51.576 340.7 50.8293 337.969 49.336C335.281 47.8 333.169 45.6453 331.633 42.872C330.14 40.0987 329.393 36.8987 329.393 33.272C329.393 29.6027 330.14 26.3813 331.633 23.608C333.127 20.8347 335.217 18.7013 337.905 17.208C340.593 15.7147 343.687 14.968 347.185 14.968C350.556 14.968 353.564 15.6933 356.209 17.144C358.897 18.5947 360.967 20.664 362.417 23.352C363.911 25.9973 364.657 29.048 364.657 32.504ZM355.377 29.944C355.335 27.64 354.503 25.8053 352.881 24.44C351.26 23.032 349.276 22.328 346.929 22.328C344.711 22.328 342.833 23.0107 341.297 24.376C339.804 25.6987 338.887 27.5547 338.545 29.944H355.377Z" fill="#FFA62F"/>
</svg>
