<svg width="49" height="49" viewBox="0 0 49 49" fill="none" xmlns="http://www.w3.org/2000/svg">
<path d="M40.7 18.9428C37.08 18.9428 35.6 16.3828 37.4 13.2428C38.44 11.4228 37.82 9.1028 36 8.0628L32.54 6.0828C30.96 5.1428 28.92 5.7028 27.98 7.2828L27.76 7.6628C25.96 10.8028 23 10.8028 21.18 7.6628L20.96 7.2828C20.06 5.7028 18.02 5.1428 16.44 6.0828L12.98 8.0628C11.16 9.1028 10.54 11.4428 11.58 13.2628C13.4 16.3828 11.92 18.9428 8.3 18.9428C6.22 18.9428 4.5 20.6428 4.5 22.7428L4.5 26.2628C4.5 28.3428 6.2 30.0628 8.3 30.0628C11.92 30.0628 13.4 32.6228 11.58 35.7628C10.54 37.5828 11.16 39.9028 12.98 40.9428L16.44 42.9228C18.02 43.8628 20.06 43.3028 21 41.7228L21.22 41.3428C23.02 38.2028 25.98 38.2028 27.8 41.3428L28.02 41.7228C28.96 43.3028 31 43.8628 32.58 42.9228L36.04 40.9428C37.86 39.9028 38.48 37.5628 37.44 35.7628C35.62 32.6228 37.1 30.0628 40.72 30.0628C42.8 30.0628 44.52 28.3628 44.52 26.2628V22.7428C44.5 20.6628 42.8 18.9428 40.7 18.9428ZM24.5 31.0028C20.92 31.0028 18 28.0828 18 24.5028C18 20.9228 20.92 18.0028 24.5 18.0028C28.08 18.0028 31 20.9228 31 24.5028C31 28.0828 28.08 31.0028 24.5 31.0028Z" fill="#000"/>
</svg>
