<svg width="16" height="16" viewBox="0 0 16 16" fill="none" xmlns="http://www.w3.org/2000/svg">
<path fill-rule="evenodd" clip-rule="evenodd" d="M0.833328 7.00004C0.833328 3.5943 3.59425 0.833374 7 0.833374C10.4057 0.833374 13.1667 3.5943 13.1667 7.00004C13.1667 10.4058 10.4057 13.1667 7 13.1667C3.59425 13.1667 0.833328 10.4058 0.833328 7.00004ZM7 1.83337C4.14654 1.83337 1.83333 4.14658 1.83333 7.00004C1.83333 9.8535 4.14654 12.1667 7 12.1667C9.85345 12.1667 12.1667 9.8535 12.1667 7.00004C12.1667 4.14658 9.85345 1.83337 7 1.83337Z" fill="#000"/>
<path fill-rule="evenodd" clip-rule="evenodd" d="M10.7204 10.7204C10.9156 10.5252 11.2322 10.5252 11.4275 10.7204L14.2559 13.5489C14.4512 13.7441 14.4512 14.0607 14.2559 14.256C14.0607 14.4512 13.7441 14.4512 13.5488 14.256L10.7204 11.4275C10.5251 11.2323 10.5251 10.9157 10.7204 10.7204Z" fill="#000"/>
</svg>
