<svg width="48" height="49" viewBox="0 0 48 49" fill="none" xmlns="http://www.w3.org/2000/svg">
<path fill-rule="evenodd" clip-rule="evenodd" d="M2.5 7.5C2.5 6.67157 3.17157 6 4 6H44C44.8284 6 45.5 6.67157 45.5 7.5V33.5C45.5 34.3284 44.8284 35 44 35H4C3.17157 35 2.5 34.3284 2.5 33.5V7.5ZM5.5 9V32H42.5V9H5.5Z" fill="#000"/>
<path fill-rule="evenodd" clip-rule="evenodd" d="M16 21C16.8284 21 17.5 21.6716 17.5 22.5V26.5C17.5 27.3284 16.8284 28 16 28C15.1716 28 14.5 27.3284 14.5 26.5V22.5C14.5 21.6716 15.1716 21 16 21Z" fill="#000"/>
<path fill-rule="evenodd" clip-rule="evenodd" d="M24 32C24.8284 32 25.5 32.6716 25.5 33.5V39.5C25.5 40.3284 24.8284 41 24 41C23.1716 41 22.5 40.3284 22.5 39.5V33.5C22.5 32.6716 23.1716 32 24 32Z" fill="#000"/>
<path fill-rule="evenodd" clip-rule="evenodd" d="M24 17C24.8284 17 25.5 17.6716 25.5 18.5V26.5C25.5 27.3284 24.8284 28 24 28C23.1716 28 22.5 27.3284 22.5 26.5V18.5C22.5 17.6716 23.1716 17 24 17Z" fill="#000"/>
<path fill-rule="evenodd" clip-rule="evenodd" d="M32 13C32.8284 13 33.5 13.6716 33.5 14.5V26.5C33.5 27.3284 32.8284 28 32 28C31.1716 28 30.5 27.3284 30.5 26.5V14.5C30.5 13.6716 31.1716 13 32 13Z" fill="#000"/>
<path fill-rule="evenodd" clip-rule="evenodd" d="M10.5 41.5C10.5 40.6716 11.1716 40 12 40H36C36.8284 40 37.5 40.6716 37.5 41.5C37.5 42.3284 36.8284 43 36 43H12C11.1716 43 10.5 42.3284 10.5 41.5Z" fill="#000"/>
</svg>
