<svg width="40" height="40" viewBox="0 0 40 40" fill="none" xmlns="http://www.w3.org/2000/svg">
<rect width="40" height="40" rx="20" fill="#000" fill-opacity="0.1"/>
<path fill-rule="evenodd" clip-rule="evenodd" d="M13.6655 13.6656C15.286 12.0451 17.5264 11.0417 20 11.0417C22.4736 11.0417 24.714 12.0451 26.3345 13.6656L25.8925 14.1075L26.3345 13.6656C27.9549 15.2861 28.9583 17.5265 28.9583 20.0001C28.9583 22.4737 27.9549 24.7141 26.3345 26.3346C24.714 27.955 22.4736 28.9584 20 28.9584C17.5264 28.9584 15.286 27.955 13.6655 26.3346L14.1074 25.8926L13.6655 26.3346C12.0451 24.7141 11.0417 22.4737 11.0417 20.0001C11.0417 17.5265 12.0451 15.2861 13.6655 13.6656L13.6655 13.6656ZM20 12.2917C17.8713 12.2917 15.945 13.1538 14.5494 14.5495C13.1538 15.9451 12.2917 17.8713 12.2917 20.0001C12.2917 22.1288 13.1538 24.0551 14.5494 25.4507C15.945 26.8463 17.8713 27.7084 20 27.7084C22.1288 27.7084 24.055 26.8463 25.4506 25.4507C26.8462 24.0551 27.7083 22.1288 27.7083 20.0001C27.7083 17.8713 26.8462 15.9451 25.4506 14.5495C24.055 13.1538 22.1288 12.2917 20 12.2917Z" fill="#000"/>
<path fill-rule="evenodd" clip-rule="evenodd" d="M20 25.4166C20.5753 25.4166 21.0417 24.9502 21.0417 24.3749C21.0417 23.7996 20.5753 23.3333 20 23.3333C19.4247 23.3333 18.9583 23.7996 18.9583 24.3749C18.9583 24.9502 19.4247 25.4166 20 25.4166Z" fill="#000"/>
<path fill-rule="evenodd" clip-rule="evenodd" d="M20 14.375C20.3452 14.375 20.625 14.6548 20.625 15V21.6667C20.625 22.0118 20.3452 22.2917 20 22.2917C19.6548 22.2917 19.375 22.0118 19.375 21.6667V15C19.375 14.6548 19.6548 14.375 20 14.375Z" fill="#000"/>
</svg>
